<svg width="46" height="33" viewBox="0 0 46 33" fill="none" xmlns="http://www.w3.org/2000/svg">
<path fill-rule="evenodd" clip-rule="evenodd" d="M5.03033 7.83841C4.98874 7.88509 4.88833 8.0355 4.80719 8.17268C4.33892 8.9643 3.9617 9.61135 3.7066 10.0603C3.19919 10.9534 2.79991 11.6478 2.65323 11.8922C2.57487 12.0228 2.32601 12.4502 2.10022 12.842C1.62022 13.6749 1.03254 14.6882 0.722961 15.2166C0.602671 15.4218 0.390858 15.8017 0.252114 16.0607L0 16.5317L0.288343 17.0784C0.446966 17.3791 0.629199 17.7014 0.693313 17.7947C0.757427 17.888 0.946648 18.2086 1.11375 18.5071C1.28085 18.8056 1.56696 19.3055 1.74953 19.6179C1.9321 19.9303 2.15335 20.3119 2.24121 20.4659C2.48348 20.8909 2.9086 21.6271 3.30394 22.3065C4.13443 23.7336 4.67055 24.6629 4.82924 24.9503L4.99885 25.2573L7.01726 25.2575C9.19421 25.2577 9.18234 25.2599 8.90899 24.9107C8.83938 24.8217 8.68836 24.5657 8.5735 24.3418C8.45863 24.1179 8.27152 23.7974 8.15767 23.6294C8.04383 23.4615 7.95061 23.3017 7.9504 23.2742C7.95027 23.2467 7.79293 22.9567 7.60086 22.6297C7.17093 21.8978 6.67158 21.0383 6.13201 20.1015C5.90635 19.7097 5.64088 19.2517 5.54209 19.0838C5.44338 18.9159 5.15368 18.4121 4.89837 17.9643C4.64314 17.5166 4.35134 17.0182 4.25004 16.8568C4.05071 16.5395 4.04875 16.5534 4.36518 16.0307C4.44429 15.9001 4.69199 15.4727 4.91574 15.0809C5.13943 14.6891 5.42038 14.2006 5.54012 13.9954C6.33568 12.6312 7.30431 10.9501 7.88568 9.92466C8.31148 9.17367 8.79637 8.34114 8.95112 8.09547C9.06151 7.9203 9.07813 7.8473 9.01646 7.80815C8.97107 7.77931 8.07259 7.75523 7.0199 7.75462C5.57323 7.75387 5.08753 7.77429 5.03033 7.83841ZM12.8274 8.03984C12.7471 8.19731 12.6279 8.40336 12.5625 8.4978C12.4473 8.66436 12.1859 9.11214 11.2549 10.7388C11.0092 11.1679 10.7278 11.6564 10.6295 11.8243C10.4523 12.1271 10.0149 12.8798 9.44701 13.8597C8.96388 14.6933 8.6292 15.283 8.27545 15.9237L7.94131 16.529L8.12565 16.8735C8.22701 17.063 8.46908 17.4928 8.6636 17.8287C8.85804 18.1645 9.19279 18.7446 9.40745 19.1177C9.62212 19.4909 9.85164 19.874 9.91745 19.9691C9.98332 20.0642 10.1211 20.3085 10.2236 20.5119C10.3261 20.7153 10.4635 20.958 10.529 21.0513C10.5945 21.1446 10.739 21.3888 10.8501 21.5941C10.9612 21.7993 11.2624 22.3288 11.5195 22.7706C11.7766 23.2125 12.0588 23.7009 12.1466 23.8561C12.2344 24.0113 12.4237 24.3367 12.5672 24.5793C12.7106 24.8218 12.8481 25.0737 12.8727 25.139C12.915 25.2514 13.4573 25.2577 22.9501 25.2577H32.9828L33.1561 24.9355C33.2514 24.7582 33.3932 24.5063 33.4712 24.3757C33.5492 24.2451 33.7725 23.8635 33.9674 23.5277C34.1624 23.1918 34.4791 22.6495 34.6712 22.3225C34.8633 21.9954 35.0206 21.7054 35.0207 21.6779C35.0209 21.6505 35.1142 21.4906 35.2281 21.3227C35.3419 21.1548 35.5413 20.8189 35.6712 20.5764C35.801 20.3338 35.9721 20.0285 36.0512 19.8979C36.4399 19.2573 36.9171 18.4264 36.9577 18.3195C37.0007 18.2065 36.8883 18.2008 34.952 18.2177L32.9008 18.2357L32.7117 18.5897C32.6077 18.7844 32.4626 19.0286 32.3893 19.1324C32.3159 19.2363 32.1587 19.5044 32.0397 19.7283C31.8108 20.159 31.2937 21.0537 31.029 21.4768L30.8708 21.7298H29.1124C28.1452 21.7298 27.3539 21.7182 27.3539 21.7041C27.3539 21.6643 28.3338 19.9248 28.7154 19.2873C28.7935 19.1567 29.0258 18.7598 29.2316 18.4053C29.4373 18.0508 29.7553 17.5066 29.9384 17.1959C30.1215 16.8852 30.2713 16.5852 30.2713 16.5292C30.2713 16.444 29.7994 15.5891 29.3968 14.9452C29.3384 14.8519 29.2181 14.6382 29.1294 14.4703C29.0406 14.3024 28.8491 13.9797 28.7038 13.7532C28.5584 13.5267 28.4395 13.3201 28.4395 13.2941C28.4395 13.2681 28.3072 13.0259 28.1456 12.7561C27.984 12.4862 27.7383 12.0593 27.5995 11.8074L27.3473 11.3494H29.1328H30.9182L31.277 11.977C31.4743 12.3222 31.816 12.9099 32.0364 13.283C32.2568 13.6562 32.5364 14.1523 32.6578 14.3855L32.8785 14.8095H34.9333C36.0634 14.8095 36.988 14.7887 36.988 14.7633C36.988 14.7202 36.5292 13.9208 35.866 12.8081C35.7103 12.5469 35.5158 12.211 35.4339 12.0618C35.2723 11.7677 35.0123 11.3181 33.9689 9.52885C33.5957 8.88899 33.2141 8.22784 33.1208 8.05972L32.9512 7.75401L22.9623 7.7538L12.9735 7.7536L12.8274 8.03984ZM21.2478 9.60402V11.2816H18.1692C15.7877 11.2816 15.0751 11.3008 15.0225 11.3664C14.9852 11.413 14.7778 11.7565 14.5617 12.1296C14.1983 12.7572 13.7477 13.5359 13.2945 14.3199C13.1928 14.4959 13.1088 14.6628 13.1079 14.6908C13.1071 14.7188 14.9382 14.7417 17.1771 14.7417H21.2478V16.5057V18.2696H17.1443H13.0407L13.1877 18.558C13.2685 18.7165 13.4165 18.9685 13.5166 19.1177C13.6168 19.267 13.7828 19.5555 13.8855 19.7589C13.9883 19.9623 14.1256 20.2066 14.1908 20.3017C14.2559 20.3968 14.4727 20.7571 14.6725 21.1022L15.0358 21.7298H18.1406H21.2455L21.2637 23.4084L21.2818 25.087L21.5373 24.6127C21.6778 24.3517 21.9591 23.8635 22.1623 23.5277C22.3655 23.1918 22.6132 22.7644 22.7127 22.5778C22.8122 22.3913 23.0383 21.9944 23.2152 21.6958C23.392 21.3973 23.6589 20.9394 23.8083 20.6782C23.9578 20.417 24.233 19.9437 24.42 19.6266C24.6069 19.3094 24.8259 18.9277 24.9066 18.7785C24.9873 18.6292 25.2331 18.2018 25.4528 17.8287C25.6725 17.4555 25.9315 17.0044 26.0284 16.8262L26.2046 16.5021L25.8387 15.8763C25.6374 15.5322 25.3055 14.9605 25.1011 14.606C24.8967 14.2515 24.6667 13.8546 24.59 13.724C24.5132 13.5934 24.1989 13.0439 23.8914 12.5028C23.5839 11.9617 23.2633 11.4122 23.1789 11.2816C23.0281 11.0479 22.7244 10.5209 22.1623 9.51758C22.0055 9.23772 21.7356 8.76524 21.5625 8.46761L21.2478 7.92647V9.60402Z" fill="#40896A"/>
<path fill-rule="evenodd" clip-rule="evenodd" d="M8.65581 1.49481C8.44338 1.85866 8.12485 2.40054 7.94798 2.69906C7.7711 2.99758 7.56024 3.36395 7.47944 3.51321C7.39863 3.66247 7.25833 3.90671 7.16755 4.05597C7.07684 4.20523 7.00208 4.35124 7.00146 4.38041C7.00085 4.40951 13.2785 4.43048 20.9518 4.42688C28.625 4.42322 34.9273 4.4452 34.9566 4.4756C34.9861 4.50599 35.1847 4.83619 35.3981 5.20934C36.1692 6.55777 36.2964 6.77936 36.6441 7.3804C36.8384 7.71623 37.0606 8.09787 37.1379 8.22847C37.2152 8.35907 37.4614 8.7865 37.6852 9.1783C37.9089 9.57011 38.1898 10.0586 38.3096 10.2638C39.2118 11.811 40.2635 13.6317 40.5825 14.1989C40.719 14.4414 41.0093 14.9452 41.2278 15.3183C41.4463 15.6915 41.6884 16.1113 41.7659 16.2512L41.9069 16.5056L41.7651 16.76C41.687 16.9 41.323 17.5335 40.956 18.1678C40.589 18.8022 40.1644 19.5414 40.0123 19.8106C39.6828 20.3936 39.1933 21.2414 38.6495 22.1707C38.4311 22.5439 38.1398 23.0476 38.0021 23.2902C37.7204 23.7862 37.1169 24.83 36.9037 25.1898C36.7389 25.4679 36.2335 26.3441 35.6316 27.3948C35.3965 27.8053 35.1318 28.2556 35.0435 28.3955L34.883 28.65H20.9417C13.274 28.65 7.00085 28.6728 7.00146 28.7008C7.00208 28.7289 7.07684 28.8738 7.16755 29.0231C7.25833 29.1724 7.39863 29.4166 7.47944 29.5659C7.56024 29.7151 7.77131 30.0815 7.94852 30.38C8.12566 30.6785 8.43416 31.2052 8.6341 31.5503L8.99761 32.1779H22.9863H36.9748L37.3639 31.5164C38.0283 30.3865 38.4419 29.6722 39.0626 28.5821C39.392 28.0037 39.8219 27.2557 40.018 26.9199C40.6795 25.7867 40.6692 25.8046 41.9253 23.6294C42.13 23.2749 42.4118 22.7864 42.5514 22.5439C42.9636 21.828 43.5632 20.7897 43.9425 20.1353C44.1371 19.7995 44.4184 19.311 44.5676 19.0498C45.1115 18.0977 45.6245 17.2105 45.8158 16.8912C46.0465 16.5061 46.0494 16.4795 45.8869 16.2447C45.8183 16.1456 45.6274 15.8263 45.4629 15.535C44.7878 14.3409 44.5138 13.8616 43.9425 12.8759C43.7479 12.54 43.4124 11.96 43.1969 11.5868C42.6733 10.6797 42.3251 10.0783 41.9115 9.36664C41.7224 9.04112 41.4585 8.58316 41.325 8.34896C41.1004 7.95464 40.8903 7.5916 39.9401 5.95565C39.745 5.61981 39.4389 5.08553 39.2597 4.76835C39.0805 4.45117 38.7905 3.94742 38.6152 3.6489C38.4399 3.35038 38.1739 2.89242 38.0241 2.63122C37.8744 2.37001 37.577 1.85866 37.3634 1.49481L36.9748 0.833313H23.0084H9.04199L8.65581 1.49481Z" fill="#001D38"/>
</svg>
