<svg width="241" height="60" viewBox="0 0 241 60" fill="none" xmlns="http://www.w3.org/2000/svg">
<path d="M10.9084 19H6.04444C2.92444 19 1.75644 17.56 1.75644 15.288C1.75644 13.192 3.05244 11.272 5.99644 11.272C7.88444 11.272 9.34044 11.832 9.34044 11.832V17.336H10.9084V19ZM7.29244 17.336V13.224C7.29244 13.224 6.68444 12.936 5.77244 12.936C4.57244 12.936 3.86844 13.848 3.86844 15.096C3.86844 16.552 4.58844 17.336 6.26844 17.336H7.29244ZM7.11644 10.264C6.52444 10.264 6.06044 9.784 6.06044 9.176C6.06044 8.584 6.52444 8.088 7.11644 8.088C7.70844 8.088 8.17244 8.568 8.17244 9.176C8.17244 9.768 7.70844 10.264 7.11644 10.264ZM4.46044 10.264C3.86844 10.264 3.40444 9.784 3.40444 9.176C3.40444 8.584 3.86844 8.088 4.46044 8.088C5.06844 8.088 5.53244 8.568 5.53244 9.176C5.53244 9.768 5.06844 10.264 4.46044 10.264ZM10.6641 19V17.336H13.6721V11.48H15.7841V17.336H17.3681V19H10.6641ZM13.0961 21.4C13.0961 21.992 12.6321 22.488 12.0241 22.488C11.4321 22.488 10.9681 22.008 10.9681 21.4C10.9681 20.808 11.4321 20.312 12.0241 20.312C12.6321 20.312 13.0961 20.792 13.0961 21.4ZM15.7361 21.4C15.7361 21.992 15.2721 22.488 14.6801 22.488C14.0881 22.488 13.6241 22.008 13.6241 21.4C13.6241 20.808 14.0881 20.312 14.6801 20.312C15.2721 20.312 15.7361 20.792 15.7361 21.4ZM17.1172 19V17.336H19.5652C18.8612 16.92 18.3172 16.024 18.3172 14.952C18.3172 12.968 19.6772 11.272 22.5092 11.272C23.5812 11.272 24.4932 11.576 24.4932 11.576L24.1252 13.256C24.1252 13.256 23.3892 12.92 22.4612 12.92C21.2612 12.92 20.4452 13.72 20.4452 14.952C20.4452 16.312 21.5492 17.336 24.0772 17.336H25.3252V19H17.1172ZM27.2584 19V7.72H29.3704V17.336H30.9704V19H27.2584ZM30.7266 19V17.336H32.9666V11.48H35.0786V17.336H36.6466V19H30.7266ZM34.0226 10.136C33.4146 10.136 32.9186 9.656 32.9186 9.032C32.9186 8.424 33.4146 7.928 34.0226 7.928C34.6306 7.928 35.1266 8.424 35.1266 9.032C35.1266 9.64 34.6306 10.136 34.0226 10.136ZM47.6781 15.144C47.6781 15.864 47.6621 16.616 47.6141 17.336H49.0861V19H36.4141V17.336H38.3661V11.48H40.4781V11.88C40.4781 12.584 40.4301 13.48 40.3021 14.248H40.3181C41.1021 12.36 42.7181 11.272 44.4301 11.272C46.6381 11.272 47.6781 12.744 47.6781 15.144ZM45.5181 15.384C45.5181 13.88 45.1341 12.968 43.9981 12.968C42.2861 12.968 40.8621 15.096 40.4621 17.336H45.4381C45.4861 16.696 45.5181 15.96 45.5181 15.384ZM48.8516 19V17.336H50.8356V7.72H52.9476V19H48.8516ZM55.6647 19V7.72H57.7767V19H55.6647ZM72.7991 19H67.9351C64.8151 19 63.6471 17.56 63.6471 15.288C63.6471 13.192 64.9431 11.272 67.8871 11.272C69.7751 11.272 71.2311 11.832 71.2311 11.832V17.336H72.7991V19ZM69.1831 17.336V13.224C69.1831 13.224 68.5751 12.936 67.6631 12.936C66.4631 12.936 65.7591 13.848 65.7591 15.096C65.7591 16.552 66.4791 17.336 68.1591 17.336H69.1831ZM69.0071 10.264C68.4151 10.264 67.9511 9.784 67.9511 9.176C67.9511 8.584 68.4151 8.088 69.0071 8.088C69.5991 8.088 70.0631 8.568 70.0631 9.176C70.0631 9.768 69.5991 10.264 69.0071 10.264ZM66.3511 10.264C65.7591 10.264 65.2951 9.784 65.2951 9.176C65.2951 8.584 65.7591 8.088 66.3511 8.088C66.9591 8.088 67.4231 8.568 67.4231 9.176C67.4231 9.768 66.9591 10.264 66.3511 10.264ZM72.5547 19V17.336H73.0667C74.1067 17.336 74.5067 16.92 74.5067 15.336V12.44H76.6187V15.608C76.6187 16.808 76.8907 17.464 77.8347 17.464C78.7627 17.464 79.0187 16.776 79.0187 15.624V11.8H81.0347V15.56C81.0347 16.888 81.3867 17.336 82.7947 17.336H83.3547C83.4187 16.696 83.4667 15.912 83.4667 15.416C83.4667 13.816 83.2747 12.344 83.0027 11.128L85.0667 10.84C85.3707 12.12 85.5787 13.688 85.5787 15.272C85.5787 16.44 85.4827 17.864 85.3387 19H82.3627C80.9707 19 80.1227 18.68 79.7707 17.816C79.3867 18.712 78.4587 19.144 77.4507 19.144C76.2827 19.144 75.4507 18.648 75.1787 17.816C74.8907 18.584 74.2347 19 73.0507 19H72.5547ZM87.4157 19V17.336H92.1677C92.0717 14.968 90.9037 13.496 88.3917 12.856L88.9037 11.096C92.1837 11.96 94.0237 13.768 94.2157 17.336H95.2557V19H87.4157ZM95.0234 19V17.336H97.2634V11.48H99.3754V17.336H100.943V19H95.0234ZM98.3194 10.136C97.7114 10.136 97.2154 9.656 97.2154 9.032C97.2154 8.424 97.7114 7.928 98.3194 7.928C98.9274 7.928 99.4234 8.424 99.4234 9.032C99.4234 9.64 98.9274 10.136 98.3194 10.136ZM113.223 19H100.711V17.336H102.071C102.503 17.336 102.791 17.416 102.791 17.416C102.791 17.416 102.375 17 102.375 16.344C102.375 14.824 103.479 13.64 105.399 13.64C107.495 13.64 108.327 15.064 108.327 16.92V17.336H110.007V17.144C110.007 13.832 108.663 12.216 105.479 12.216C104.391 12.216 103.079 12.472 102.055 12.808L101.863 11.32C102.999 10.952 104.471 10.696 105.735 10.696C109.735 10.696 112.023 12.616 112.023 17.288V17.336H113.223V19ZM106.615 17.4V16.904C106.615 15.768 106.183 14.968 105.255 14.968C104.519 14.968 104.103 15.48 104.103 16.12C104.103 16.952 104.775 17.4 105.607 17.4H106.615ZM112.961 19V17.336H114.945V7.72H117.057V19H112.961ZM119.774 19V7.72H121.886V19H119.774ZM137.164 19H133.82C129.468 19 127.948 17.192 127.948 14.264C127.948 13.4 128.124 12.408 128.364 11.752L130.62 11.384C130.284 12.12 130.076 13.176 130.076 14.024C130.076 16.28 131.052 17.336 134.044 17.336H135.132V11.576C135.132 11.576 136.62 11.272 138.348 11.272C141.164 11.272 142.044 12.616 142.044 14.808V16.824H139.996V15.032C139.996 13.496 139.548 12.936 138.22 12.936C137.692 12.936 137.164 13.032 137.164 13.032V19ZM135.804 21.4C135.804 21.992 135.34 22.488 134.748 22.488C134.156 22.488 133.692 22.008 133.692 21.4C133.692 20.808 134.156 20.312 134.748 20.312C135.34 20.312 135.804 20.792 135.804 21.4ZM133.164 21.4C133.164 21.992 132.7 22.488 132.092 22.488C131.5 22.488 131.036 22.008 131.036 21.4C131.036 20.808 131.5 20.312 132.092 20.312C132.7 20.312 133.164 20.792 133.164 21.4ZM143.884 19V17.336H148.636C148.54 14.968 147.372 13.496 144.86 12.856L145.372 11.096C148.844 12.008 150.7 13.976 150.7 17.944V19H143.884ZM152.852 19V7.72H154.964V17.336H156.564V19H152.852ZM156.32 19V17.336H158.56V11.48H160.672V19H156.32ZM159.616 10.136C159.008 10.136 158.512 9.656 158.512 9.032C158.512 8.424 159.008 7.928 159.616 7.928C160.224 7.928 160.72 8.424 160.72 9.032C160.72 9.64 160.224 10.136 159.616 10.136Z" fill="black"/>
<path d="M2.9054 53H1.1634V43.955H2.9054V53ZM10.5505 53H8.84871V48.7388C8.84871 48.0554 8.66111 47.64 8.01791 47.64C7.16031 47.64 6.47691 48.6182 6.47691 49.784V53H4.76171V46.3402H6.38311C6.38311 46.6484 6.35631 47.1844 6.28931 47.5328H6.30271C6.70471 46.7556 7.48191 46.2062 8.56731 46.2062C10.0681 46.2062 10.5505 47.1576 10.5505 48.3234V53ZM18.0316 53H16.437C16.437 52.6784 16.4638 52.2496 16.5174 51.8878H16.4906C16.1422 52.6248 15.4052 53.1474 14.3868 53.1474C12.7654 53.1474 11.9614 51.928 11.9614 50.0252C11.9614 47.774 13.2746 46.2196 15.4856 46.2196C15.767 46.2196 16.035 46.233 16.3298 46.2732V43.218H18.0316V53ZM16.3298 49.5428V47.6802C16.0216 47.6132 15.7268 47.573 15.432 47.573C14.4538 47.573 13.757 48.1894 13.757 49.8376C13.757 51.0838 14.1188 51.727 14.896 51.727C15.7938 51.727 16.3298 50.6818 16.3298 49.5428ZM25.6779 53H24.0699C24.0699 52.6918 24.0833 52.1558 24.1503 51.8074H24.1369C23.7349 52.5846 22.9711 53.134 21.8723 53.134C20.3715 53.134 19.8891 52.1826 19.8891 51.0168V46.3402H21.5909V50.6014C21.5909 51.2848 21.7785 51.7002 22.4217 51.7002C23.2927 51.7002 23.9627 50.722 23.9627 49.5562V46.3402H25.6779V53ZM31.6718 50.923C31.6718 52.2496 30.506 53.134 28.7372 53.134C28.2146 53.134 27.6786 53.0804 27.2498 52.9598L27.3704 51.526C27.7724 51.7002 28.295 51.794 28.7908 51.794C29.434 51.794 29.8628 51.5126 29.8628 51.0704C29.8628 49.8912 27.156 50.588 27.156 48.3234C27.156 47.1442 28.0538 46.1928 29.9834 46.1928C30.3586 46.1928 30.8142 46.2464 31.1894 46.3268L31.109 47.6668C30.7472 47.5596 30.3184 47.4926 29.903 47.4926C29.233 47.4926 28.9248 47.7606 28.9248 48.176C28.9248 49.3016 31.6718 48.7388 31.6718 50.923ZM36.8039 52.9464C36.3751 53.0536 35.8257 53.134 35.3567 53.134C33.8827 53.134 33.4271 52.598 33.4271 51.0436V47.6668H32.2747V46.3402H33.4271V44.29L35.1289 43.8344V46.3402H36.7503V47.6668H35.1289V50.588C35.1289 51.4456 35.3299 51.6868 35.9195 51.6868C36.2009 51.6868 36.4555 51.66 36.6833 51.593L36.8039 52.9464ZM41.7887 46.2062L41.7083 47.8812C40.4755 47.64 39.8591 48.4306 39.8591 50.2798V53H38.1439V46.3402H39.7653C39.7653 46.6752 39.7251 47.2112 39.6447 47.6802H39.6715C39.9931 46.836 40.6363 46.099 41.7887 46.2062ZM44.8368 44.3168C44.8368 44.8796 44.3544 45.3486 43.7648 45.3486C43.1752 45.3486 42.7062 44.893 42.7062 44.3168C42.7062 43.7406 43.1752 43.2716 43.7648 43.2716C44.3544 43.2716 44.8368 43.7272 44.8368 44.3168ZM44.6224 53H42.9072V46.3402H44.6224V53ZM51.6658 53H50.031C50.031 52.6114 50.0444 52.2228 50.098 51.8744L50.0846 51.861C49.763 52.6114 48.9456 53.134 47.954 53.134C46.748 53.134 46.0512 52.3166 46.0512 51.2312C46.0512 49.65 47.5654 48.913 49.897 48.913V48.6718C49.897 47.8678 49.5888 47.506 48.7044 47.506C48.1014 47.506 47.284 47.707 46.6944 47.9616L46.413 46.6484C47.083 46.3804 48.0344 46.1928 48.9322 46.1928C50.9958 46.1928 51.6122 47.0504 51.6122 48.5378V51.2848C51.6122 51.8208 51.6256 52.4506 51.6658 53ZM49.897 50.2128V50.0386C48.1684 50.0386 47.6994 50.4674 47.6994 51.0436C47.6994 51.4724 48.0076 51.8208 48.5034 51.8208C49.3342 51.8208 49.897 51.0168 49.897 50.2128ZM55.2089 53H53.4937V43.218H55.2089V53ZM65.2558 53H60.338V43.955H65.2558V45.4156H62.08V47.64H65.095V49.0604H62.08V51.4992H65.2558V53ZM72.7218 53H71.02V48.7388C71.02 48.0554 70.8324 47.64 70.1892 47.64C69.3316 47.64 68.6482 48.6182 68.6482 49.784V53H66.933V46.3402H68.5544C68.5544 46.6484 68.5276 47.1844 68.4606 47.5328H68.474C68.876 46.7556 69.6532 46.2062 70.7386 46.2062C72.2394 46.2062 72.7218 47.1576 72.7218 48.3234V53ZM80.6317 53.7102C80.6317 55.144 79.1845 56.3634 76.9735 56.3634C75.2047 56.3634 74.1193 55.68 74.1193 54.3802C74.1193 53.6834 74.6017 53.0402 75.1511 52.7454C74.7491 52.5578 74.4945 52.1826 74.4945 51.727C74.4945 51.2044 74.8295 50.7354 75.2851 50.5344C74.6687 50.1994 74.2935 49.583 74.2935 48.712C74.2935 47.372 75.2851 46.1928 77.2281 46.1928C77.6569 46.1928 77.9517 46.2464 78.3135 46.3402H80.5781V47.6802H79.6669C79.8813 47.8812 80.0019 48.176 80.0019 48.5244C80.0019 49.9448 79.0505 50.923 77.1477 50.923C76.9601 50.923 76.8127 50.9096 76.6251 50.8694C76.4107 50.9632 76.3035 51.1374 76.3035 51.2982C76.3035 51.6064 76.5581 51.6868 77.3353 51.7136L78.3671 51.7538C79.8009 51.8074 80.6317 52.4238 80.6317 53.7102ZM78.3671 48.6182C78.3671 47.908 77.9517 47.439 77.1611 47.439C76.3839 47.439 75.9283 47.9348 75.9283 48.6048C75.9283 49.315 76.3571 49.7572 77.1611 49.7572C77.9115 49.7572 78.3671 49.3284 78.3671 48.6182ZM78.9299 53.938C78.9299 53.4556 78.6217 53.1072 77.8847 53.0804L76.7323 53.0402C76.6385 53.0402 76.5045 53.0402 76.4241 53.0402C76.0355 53.3216 75.8077 53.6834 75.8077 54.0586C75.8077 54.675 76.3705 55.0502 77.2281 55.0502C78.3403 55.0502 78.9299 54.5678 78.9299 53.938ZM83.8198 44.3168C83.8198 44.8796 83.3374 45.3486 82.7478 45.3486C82.1582 45.3486 81.6892 44.893 81.6892 44.3168C81.6892 43.7406 82.1582 43.2716 82.7478 43.2716C83.3374 43.2716 83.8198 43.7272 83.8198 44.3168ZM83.6054 53H81.8902V46.3402H83.6054V53ZM91.2384 53H89.5366V48.7388C89.5366 48.0554 89.349 47.64 88.7058 47.64C87.8482 47.64 87.1648 48.6182 87.1648 49.784V53H85.4496V46.3402H87.071C87.071 46.6484 87.0442 47.1844 86.9772 47.5328H86.9906C87.3926 46.7556 88.1698 46.2062 89.2552 46.2062C90.756 46.2062 91.2384 47.1576 91.2384 48.3234V53ZM98.5587 49.0336C98.5587 49.2882 98.5453 49.7036 98.4917 49.9984H94.3779C94.3779 51.1776 94.9273 51.794 96.2137 51.794C96.8435 51.794 97.5135 51.66 98.1433 51.4054L98.3309 52.7052C97.6073 52.9732 96.7363 53.134 95.9189 53.134C93.8151 53.134 92.6359 52.0754 92.6359 49.7304C92.6359 47.7338 93.8151 46.2062 95.7983 46.2062C97.7413 46.2062 98.5587 47.4524 98.5587 49.0336ZM96.8569 48.8594C96.8837 47.9482 96.4281 47.4658 95.7045 47.4658C94.9943 47.4658 94.4851 47.9884 94.3913 48.8594H96.8569ZM105.442 49.0336C105.442 49.2882 105.428 49.7036 105.375 49.9984H101.261C101.261 51.1776 101.81 51.794 103.097 51.794C103.727 51.794 104.397 51.66 105.026 51.4054L105.214 52.7052C104.49 52.9732 103.619 53.134 102.802 53.134C100.698 53.134 99.5191 52.0754 99.5191 49.7304C99.5191 47.7338 100.698 46.2062 102.681 46.2062C104.624 46.2062 105.442 47.4524 105.442 49.0336ZM103.74 48.8594C103.767 47.9482 103.311 47.4658 102.588 47.4658C101.877 47.4658 101.368 47.9884 101.274 48.8594H103.74ZM110.516 46.2062L110.436 47.8812C109.203 47.64 108.586 48.4306 108.586 50.2798V53H106.871V46.3402H108.493C108.493 46.6752 108.452 47.2112 108.372 47.6802H108.399C108.72 46.836 109.364 46.099 110.516 46.2062ZM113.564 44.3168C113.564 44.8796 113.082 45.3486 112.492 45.3486C111.903 45.3486 111.434 44.893 111.434 44.3168C111.434 43.7406 111.903 43.2716 112.492 43.2716C113.082 43.2716 113.564 43.7272 113.564 44.3168ZM113.35 53H111.635V46.3402H113.35V53ZM120.983 53H119.281V48.7388C119.281 48.0554 119.093 47.64 118.45 47.64C117.593 47.64 116.909 48.6182 116.909 49.784V53H115.194V46.3402H116.815C116.815 46.6484 116.789 47.1844 116.722 47.5328H116.735C117.137 46.7556 117.914 46.2062 119 46.2062C120.5 46.2062 120.983 47.1576 120.983 48.3234V53ZM128.893 53.7102C128.893 55.144 127.445 56.3634 125.234 56.3634C123.466 56.3634 122.38 55.68 122.38 54.3802C122.38 53.6834 122.863 53.0402 123.412 52.7454C123.01 52.5578 122.755 52.1826 122.755 51.727C122.755 51.2044 123.09 50.7354 123.546 50.5344C122.93 50.1994 122.554 49.583 122.554 48.712C122.554 47.372 123.546 46.1928 125.489 46.1928C125.918 46.1928 126.213 46.2464 126.574 46.3402H128.839V47.6802H127.928C128.142 47.8812 128.263 48.176 128.263 48.5244C128.263 49.9448 127.311 50.923 125.409 50.923C125.221 50.923 125.074 50.9096 124.886 50.8694C124.672 50.9632 124.564 51.1374 124.564 51.2982C124.564 51.6064 124.819 51.6868 125.596 51.7136L126.628 51.7538C128.062 51.8074 128.893 52.4238 128.893 53.7102ZM126.628 48.6182C126.628 47.908 126.213 47.439 125.422 47.439C124.645 47.439 124.189 47.9348 124.189 48.6048C124.189 49.315 124.618 49.7572 125.422 49.7572C126.172 49.7572 126.628 49.3284 126.628 48.6182ZM127.191 53.938C127.191 53.4556 126.883 53.1072 126.146 53.0804L124.993 53.0402C124.899 53.0402 124.765 53.0402 124.685 53.0402C124.296 53.3216 124.069 53.6834 124.069 54.0586C124.069 54.675 124.631 55.0502 125.489 55.0502C126.601 55.0502 127.191 54.5678 127.191 53.938ZM139.546 52.6918C138.876 52.9464 138.032 53.1072 137.188 53.1072C134.026 53.1072 133.007 51.0168 133.007 48.7656C133.007 45.898 134.508 43.8746 137.536 43.8746C138.18 43.8746 138.876 43.9684 139.466 44.1426L139.225 45.7506C138.675 45.5362 138.059 45.429 137.456 45.429C135.754 45.429 134.923 46.702 134.923 48.4708C134.923 50.4272 135.741 51.526 137.563 51.526C138.113 51.526 138.809 51.3786 139.278 51.1508L139.546 52.6918ZM142.728 53H141.012V43.218H142.728V53ZM150.361 53H148.753C148.753 52.6918 148.766 52.1558 148.833 51.8074H148.82C148.418 52.5846 147.654 53.134 146.555 53.134C145.054 53.134 144.572 52.1826 144.572 51.0168V46.3402H146.274V50.6014C146.274 51.2848 146.461 51.7002 147.104 51.7002C147.975 51.7002 148.645 50.722 148.645 49.5562V46.3402H150.361V53ZM158.298 49.3284C158.298 51.5796 156.984 53.134 154.693 53.134C153.728 53.134 152.978 53.0268 152.214 52.8124V43.218H153.929V46.0856C153.929 46.4876 153.889 47.037 153.822 47.3854H153.835C154.17 46.6618 154.921 46.2062 155.845 46.2062C157.44 46.2062 158.298 47.3586 158.298 49.3284ZM156.502 49.5026C156.502 48.2564 156.14 47.6266 155.363 47.6266C154.465 47.6266 153.929 48.6584 153.929 49.7706V51.6466C154.17 51.727 154.452 51.7672 154.827 51.7672C155.792 51.7672 156.502 51.1508 156.502 49.5026Z" fill="black"/>
<path fill-rule="evenodd" clip-rule="evenodd" d="M179.426 16.5038C179.364 16.5738 179.213 16.7993 179.092 17.005C178.39 18.192 177.824 19.1622 177.441 19.8355C176.681 21.1746 176.082 22.2158 175.862 22.5823C175.744 22.7781 175.371 23.419 175.033 24.0065C174.313 25.2555 173.432 26.7747 172.968 27.5671C172.787 27.8748 172.47 28.4444 172.262 28.8328L171.884 29.5391L172.316 30.3588C172.554 30.8097 172.827 31.293 172.923 31.4329C173.019 31.5728 173.303 32.0535 173.554 32.5011C173.804 32.9487 174.233 33.6983 174.507 34.1666C174.781 34.6351 175.112 35.2073 175.244 35.4383C175.607 36.0755 176.245 37.1794 176.838 38.1981C178.083 40.338 178.887 41.7314 179.125 42.1623L179.379 42.6228L182.406 42.6231C185.67 42.6234 185.652 42.6266 185.242 42.103C185.138 41.9695 184.911 41.5857 184.739 41.25C184.567 40.9143 184.286 40.4336 184.116 40.1818C183.945 39.93 183.805 39.6904 183.805 39.6492C183.805 39.608 183.569 39.173 183.281 38.6827C182.636 37.5853 181.887 36.2965 181.078 34.8918C180.74 34.3043 180.342 33.6176 180.194 33.3658C180.046 33.114 179.611 32.3587 179.228 31.6872C178.846 31.0158 178.408 30.2685 178.256 30.0266C177.957 29.5507 177.955 29.5716 178.429 28.7879C178.548 28.592 178.919 27.9511 179.255 27.3636C179.59 26.7761 180.011 26.0437 180.191 25.7359C181.384 23.6904 182.836 21.1697 183.708 19.632C184.346 18.506 185.073 17.2576 185.305 16.8893C185.471 16.6266 185.496 16.5171 185.403 16.4584C185.335 16.4152 183.988 16.3791 182.41 16.3782C180.24 16.377 179.512 16.4077 179.426 16.5038ZM191.118 16.8058C190.997 17.0419 190.819 17.3509 190.721 17.4925C190.548 17.7423 190.156 18.4137 188.76 20.8528C188.391 21.4963 187.969 22.2287 187.822 22.4805C187.556 22.9344 186.901 24.0632 186.049 25.5325C185.325 26.7824 184.823 27.6666 184.292 28.6273L183.791 29.535L184.068 30.0516C184.22 30.3357 184.583 30.9802 184.874 31.4838C185.166 31.9873 185.668 32.8571 185.99 33.4167C186.312 33.9762 186.656 34.5507 186.754 34.6933C186.853 34.8359 187.06 35.2022 187.213 35.5072C187.367 35.8121 187.573 36.1761 187.671 36.316C187.77 36.4559 187.986 36.8221 188.153 37.1299C188.319 37.4376 188.771 38.2315 189.157 38.894C189.542 39.5566 189.965 40.289 190.097 40.5217C190.229 40.7545 190.512 41.2424 190.728 41.6061C190.943 41.9698 191.149 42.3475 191.186 42.4453C191.249 42.6138 192.062 42.6234 206.296 42.6234H221.34L221.6 42.1402C221.743 41.8743 221.955 41.4967 222.072 41.3009C222.189 41.105 222.524 40.5328 222.816 40.0292C223.109 39.5257 223.584 38.7124 223.872 38.2221C224.16 37.7317 224.396 37.2968 224.396 37.2556C224.396 37.2144 224.536 36.9747 224.707 36.7229C224.877 36.4712 225.176 35.9676 225.371 35.6039C225.566 35.2402 225.822 34.7824 225.941 34.5866C226.524 33.626 227.239 32.38 227.3 32.2198C227.365 32.0503 227.196 32.0418 224.293 32.0672L221.217 32.0942L220.933 32.6249C220.778 32.9169 220.56 33.2831 220.45 33.4387C220.34 33.5945 220.104 33.9965 219.926 34.3323C219.583 34.978 218.807 36.3196 218.41 36.9541L218.173 37.3333H215.536C214.086 37.3333 212.9 37.316 212.9 37.2949C212.9 37.2352 214.369 34.6269 214.941 33.671C215.058 33.4752 215.407 32.88 215.715 32.3485C216.024 31.8169 216.501 31.0008 216.775 30.535C217.05 30.0691 217.274 29.6192 217.274 29.5353C217.274 29.4075 216.567 28.1257 215.963 27.1602C215.875 27.0203 215.695 26.6998 215.562 26.4481C215.429 26.1963 215.142 25.7124 214.924 25.3727C214.706 25.0332 214.527 24.7234 214.527 24.6843C214.527 24.6454 214.329 24.2823 214.087 23.8776C213.845 23.4729 213.476 22.8328 213.268 22.4551L212.89 21.7684H215.567H218.244L218.782 22.7094C219.078 23.227 219.59 24.1082 219.921 24.6678C220.251 25.2273 220.671 25.9712 220.853 26.3209L221.184 26.9567H224.265C225.959 26.9567 227.346 26.9255 227.346 26.8874C227.346 26.8228 226.658 25.624 225.663 23.9556C225.43 23.564 225.138 23.0604 225.015 22.8366C224.773 22.3956 224.383 21.7214 222.819 19.0385C222.259 18.0791 221.687 17.0877 221.547 16.8356L221.293 16.3772L206.315 16.3769L191.337 16.3766L191.118 16.8058ZM203.744 19.1513V21.6667H199.128C195.557 21.6667 194.488 21.6955 194.409 21.7938C194.353 21.8638 194.042 22.3788 193.718 22.9383C193.173 23.8793 192.498 25.047 191.818 26.2225C191.666 26.4865 191.54 26.7368 191.538 26.7787C191.537 26.8206 194.283 26.855 197.64 26.855H203.744V29.5V32.145H197.591H191.438L191.658 32.5774C191.779 32.8151 192.001 33.1929 192.151 33.4167C192.301 33.6405 192.55 34.0731 192.704 34.3781C192.858 34.6831 193.064 35.0494 193.162 35.192C193.26 35.3346 193.585 35.8748 193.884 36.3923L194.429 37.3333H199.085H203.74L203.768 39.8504L203.795 42.3674L204.178 41.6561C204.389 41.2649 204.81 40.5328 205.115 40.0292C205.42 39.5257 205.791 38.8847 205.94 38.605C206.09 38.3252 206.429 37.7301 206.694 37.2825C206.959 36.8348 207.359 36.1482 207.583 35.7565C207.807 35.3648 208.22 34.6553 208.5 34.1797C208.781 33.7041 209.109 33.1318 209.23 32.908C209.351 32.6842 209.72 32.0433 210.049 31.4838C210.378 30.9242 210.767 30.2478 210.912 29.9806L211.176 29.4946L210.628 28.5563C210.326 28.0403 209.828 27.1831 209.522 26.6515C209.215 26.12 208.87 25.5248 208.755 25.329C208.64 25.1332 208.169 24.3091 207.708 23.4978C207.247 22.6865 206.766 21.8625 206.639 21.6667C206.413 21.3163 205.958 20.5262 205.115 19.0216C204.88 18.602 204.475 17.8935 204.216 17.4472L203.744 16.6358V19.1513Z" fill="#40896A"/>
<path fill-rule="evenodd" clip-rule="evenodd" d="M184.862 6.99188C184.544 7.53747 184.066 8.35 183.801 8.79762C183.536 9.24524 183.22 9.79459 183.099 10.0184C182.977 10.2422 182.767 10.6084 182.631 10.8323C182.495 11.0561 182.383 11.275 182.382 11.3187C182.381 11.3624 191.794 11.3938 203.3 11.3884C214.806 11.3829 224.256 11.4159 224.3 11.4615C224.344 11.507 224.642 12.0022 224.962 12.5617C226.118 14.5836 226.308 14.9159 226.83 15.8171C227.121 16.3207 227.454 16.8929 227.57 17.0887C227.686 17.2846 228.055 17.9255 228.391 18.513C228.726 19.1005 229.148 19.833 229.327 20.1407C230.68 22.4606 232.257 25.1906 232.735 26.0411C232.94 26.4048 233.375 27.1602 233.703 27.7197C234.03 28.2792 234.394 28.9087 234.51 29.1185L234.721 29.5L234.509 29.8815C234.392 30.0914 233.846 31.0412 233.295 31.9924C232.745 32.9436 232.108 34.0521 231.88 34.4557C231.386 35.3299 230.652 36.6011 229.837 37.9946C229.509 38.5541 229.073 39.3095 228.866 39.6732C228.444 40.417 227.539 41.9822 227.219 42.5216C226.972 42.9386 226.214 44.2524 225.312 45.8279C224.959 46.4434 224.562 47.1187 224.43 47.3285L224.189 47.71H203.285C191.787 47.71 182.381 47.7442 182.382 47.7863C182.383 47.8283 182.495 48.0457 182.631 48.2695C182.767 48.4933 182.977 48.8595 183.099 49.0833C183.22 49.3071 183.536 49.8565 183.802 50.3041C184.068 50.7517 184.53 51.5415 184.83 52.059L185.375 53H206.35H227.326L227.909 52.0081C228.905 50.3139 229.526 49.2428 230.456 47.6082C230.95 46.741 231.595 45.6194 231.889 45.1158C232.881 43.4167 232.865 43.4435 234.749 40.1818C235.056 39.6503 235.478 38.9178 235.688 38.5541C236.306 37.4807 237.205 35.9238 237.774 34.9426C238.065 34.4391 238.487 33.7066 238.711 33.3149C239.526 31.8873 240.296 30.5569 240.582 30.0782C240.928 29.5007 240.933 29.4608 240.689 29.1087C240.586 28.9602 240.3 28.4814 240.053 28.0446C239.041 26.2542 238.63 25.5354 237.774 24.0574C237.482 23.5538 236.979 22.684 236.656 22.1245C235.87 20.7643 235.348 19.8625 234.728 18.7954C234.445 18.3073 234.049 17.6206 233.849 17.2694C233.512 16.6782 233.197 16.1338 231.772 13.6807C231.48 13.1772 231.02 12.376 230.752 11.9004C230.483 11.4248 230.048 10.6695 229.785 10.2219C229.523 9.77424 229.124 9.08755 228.899 8.69589C228.675 8.30422 228.229 7.53747 227.908 6.99188L227.326 6H206.384H185.442L184.862 6.99188Z" fill="#001D38"/>
</svg>
